# xmcd
#
# Track frame offsets:
#	182
#	13957
#	28532
#	42707
#	56655
#	69990
#	82727
#	95990
#	108412
#	121762
#	134912
#	146712
#	160710
#	175135
#	189680
#	202830
#	217312
#	231117
#
# Disc length: 3288 seconds
#
# Revision: 4
# Processed by: cddbd v1.5.2PL0 Copyright (c) Steve Scherf et al.
# Submitted via: EasyCDDAExtractor 16.0.6.1
#
DISCID=0c0cd612
DTITLE=King Oliver - Jazz and Blues Collection - King Oliver - Cd 20
DYEAR=1926
DGENRE=Blues
TTITLE0=Too Bad
TTITLE1=Snag It
TTITLE2=Deep Henderson
TTITLE3=Jackass Blues
TTITLE4=Sugar Foot Stomp
TTITLE5=Wa Wa Wa
TTITLE6=Somebody Sweetheart
TTITLE7=Dead Man Blues
TTITLE8=Willie The Weeper
TTITLE9=Farewell Blues
TTITLE10=Sobbin' Blues
TTITLE11=West End Blues
TTITLE12=Four Or Five Times
TTITLE13=I'm Watching The Clock
TTITLE14=Papa De Da Da
TTITLE15=Stop Crying
TTITLE16=Sugar Blues
TTITLE17=I'm Crying About My Baby
EXTD=
EXTT0=
EXTT1=
EXTT2=
EXTT3=
EXTT4=
EXTT5=
EXTT6=
EXTT7=
EXTT8=
EXTT9=
EXTT10=
EXTT11=
EXTT12=
EXTT13=
EXTT14=
EXTT15=
EXTT16=
EXTT17=
PLAYORDER=
